<svg width="24" height="25" viewBox="0 0 24 25" fill="none" xmlns="http://www.w3.org/2000/svg">
<path d="M8 4.46387C8 3.63544 8.67157 2.96387 9.5 2.96387H14.5C15.3284 2.96387 16 3.63544 16 4.46387V5.46387C16 6.29229 15.3284 6.96387 14.5 6.96387H9.5C8.67157 6.96387 8 6.29229 8 5.46387V4.46387Z" fill="#F48C13"/>
<path fill-rule="evenodd" clip-rule="evenodd" d="M6.5 5.00048C5.24209 5.07106 4.44798 5.27151 3.87868 5.84081C3 6.71949 3 8.1337 3 10.9621V16.9621C3 19.7906 3 21.2048 3.87868 22.0835C4.75736 22.9621 6.17157 22.9621 9 22.9621H15C17.8284 22.9621 19.2426 22.9621 20.1213 22.0835C21 21.2048 21 19.7906 21 16.9621V10.9621C21 8.1337 21 6.71949 20.1213 5.84081C19.552 5.27151 18.7579 5.07106 17.5 5.00048V5.46387C17.5 7.12072 16.1569 8.46387 14.5 8.46387H9.5C7.84315 8.46387 6.5 7.12072 6.5 5.46387V5.00048ZM6.25 11.4639C6.25 11.0497 6.58579 10.7139 7 10.7139H17C17.4142 10.7139 17.75 11.0497 17.75 11.4639C17.75 11.8781 17.4142 12.2139 17 12.2139H7C6.58579 12.2139 6.25 11.8781 6.25 11.4639ZM7.25 14.9639C7.25 14.5497 7.58579 14.2139 8 14.2139H16C16.4142 14.2139 16.75 14.5497 16.75 14.9639C16.75 15.3781 16.4142 15.7139 16 15.7139H8C7.58579 15.7139 7.25 15.3781 7.25 14.9639ZM8.25 18.4639C8.25 18.0497 8.58579 17.7139 9 17.7139H15C15.4142 17.7139 15.75 18.0497 15.75 18.4639C15.75 18.8781 15.4142 19.2139 15 19.2139H9C8.58579 19.2139 8.25 18.8781 8.25 18.4639Z" fill="#F48C13"/>
</svg>
