<?xml version="1.0" encoding="UTF-8"?>
<svg id="Layer_2" data-name="Layer 2" xmlns="http://www.w3.org/2000/svg" viewBox="0 0 1000 1000">
  <defs>
    <style>
      .cls-1 {
        opacity: .5;
      }

      .cls-2, .cls-3, .cls-4 {
        stroke-width: 0px;
      }

      .cls-3 {
        fill: #ccd2d6;
      }

      .cls-4 {
        fill: #fff;
      }

      .cls-5 {
        opacity: .25;
      }
    </style>
  </defs>
  <g class="cls-5">
    <path class="cls-3" d="m0,135.49c0-25.38,12.38-48.35,32.39-64.99,20.02-16.64,47.67-26.93,78.2-26.93h434.43l-149.96,61.16c-1.2.49-2.07,1.48-2.42,2.65v.02s-77.19,84.41-77.19,84.41l-30.46-50.26c-1.12-1.87-3.49-2.55-5.44-1.61l-178.34,87.14C44.52,223.14,0,183.64,0,135.49Z"/>
    <path class="cls-3" d="m1000,870.86c0,25.38-12.38,48.35-32.4,64.99-20.01,16.64-47.66,26.93-78.19,26.93H110.58c-61.07,0-110.58-41.15-110.58-91.92,0-25.38,12.38-48.37,32.39-65,20.02-16.62,47.67-26.93,78.2-26.93h28.68c30.54,0,58.19-10.29,78.2-26.93,20.02-16.62,32.4-39.61,32.4-64.99,0-50.76-49.51-91.92-110.6-91.92h-28.68c-61.07,0-110.58-41.15-110.58-91.92,0-25.39,12.38-48.37,32.39-65,20.02-16.65,47.67-26.93,78.2-26.93h172.17l14.75,96.38c.22,1.45,1.18,2.66,2.53,3.23l108.53,45.45c1.48.62,2.49,2.04,2.58,3.66l4.8,89.96c.09,1.58,1.07,2.99,2.54,3.62l42.2,18.17c-163.3,23.53-302.2,120.12-247.72,135.17,62.25,17.2,167.29.49,154.33,20.05-12.96,19.58-93.38,18.63-70.04,46.79,23.35,28.18,164.06,25.32,224.5,18.63,60.44-6.69,73.14-26.74,13.44-45.84-59.7-19.11-14.23-29.6,79.15-31.51,93.38-1.92,238.63,3.81,239.92-27.7.1-2.47-.62-5.29-2.14-8.39h37.29c61.06,0,110.58,41.15,110.58,91.93Z"/>
    <path class="cls-3" d="m1000,503.18c0,25.38-12.38,48.35-32.4,64.99-14.05,11.69-31.85,20.24-51.78,24.29v-105.88c0-11.65-9.44-21.09-21.09-21.09h-214.35c-11.65,0-21.1,9.44-21.1,21.09v122.7c0,4.62,1.5,8.9,4.03,12.38-.16.12-.3.24-.45.36-16.82,13.97-28.25,32.43-31.46,53.02-25.41-4.32-52.45-7.2-80.9-8.15l56.83-169.23c.52-1.54.1-3.26-1.08-4.38l-60.33-57.11c-1.17-1.11-1.61-2.79-1.11-4.34l30.1-93.4c.13-.45.21-.94.18-1.42l-9.44-293.44h323.76c61.06,0,110.58,41.15,110.58,91.92,0,25.38-12.38,48.37-32.4,65-20.01,16.62-47.66,26.93-78.19,26.93h-7.42c-30.55,0-58.19,10.29-78.21,26.93-20.02,16.62-32.4,39.61-32.4,64.99,0,50.76,49.52,91.92,110.61,91.92h7.42c61.06,0,110.58,41.15,110.58,91.93Z"/>
    <circle class="cls-3" cx="150.43" cy="691.49" r="60.08"/>
    <circle class="cls-3" cx="863.04" cy="322.08" r="60.08"/>
  </g>
  <g>
    <path class="cls-3" d="m296.2,606.34c-1.66,0-3-1.34-3-3,0-1.66,1.34-3,3-3,7.82,0,15.81-.33,23.74-.96,1.65-.14,3.1,1.1,3.23,2.75s-1.1,3.1-2.75,3.23c-8.09.64-16.24.97-24.21.98h0Zm-23.97-1.02c-.09,0-.18,0-.27-.01-8.36-.75-16.46-1.93-24.08-3.51-1.62-.33-2.67-1.92-2.33-3.54s1.92-2.67,3.55-2.33c7.39,1.53,15.26,2.67,23.4,3.4,1.65.15,2.87,1.61,2.72,3.26-.14,1.56-1.45,2.73-2.98,2.73Zm71.77-2.74c-1.46,0-2.73-1.06-2.96-2.54-.25-1.64.87-3.17,2.51-3.42,7.7-1.19,15.56-2.68,23.37-4.44,1.62-.36,3.22.65,3.59,2.27.36,1.62-.65,3.22-2.27,3.58-7.94,1.79-15.94,3.3-23.77,4.51-.15.02-.31.04-.46.04Zm-118.61-7.17c-.34,0-.68-.06-1.02-.18-4.71-1.7-9.31-3.63-13.67-5.72-2.93-1.41-5.82-2.93-8.58-4.54-1.43-.83-1.92-2.67-1.09-4.1.83-1.43,2.67-1.92,4.1-1.09,2.63,1.52,5.37,2.98,8.16,4.32,4.18,2.01,8.59,3.85,13.11,5.49,1.56.56,2.37,2.28,1.8,3.84-.44,1.22-1.59,1.98-2.82,1.98Zm165.4-3.31c-1.3,0-2.5-.85-2.88-2.16-.46-1.59.45-3.26,2.04-3.72,7.46-2.18,15.09-4.65,22.66-7.34,1.56-.56,3.28.26,3.83,1.82s-.26,3.28-1.82,3.83c-7.69,2.73-15.42,5.23-22.99,7.44-.28.08-.56.12-.84.12Zm45.22-16c-1.18,0-2.29-.7-2.77-1.85-.63-1.53.09-3.29,1.62-3.92,7.18-2.97,14.52-6.22,21.82-9.64,1.5-.7,3.29-.06,3.99,1.44.7,1.5.06,3.29-1.44,3.99-7.39,3.46-14.81,6.75-22.08,9.75-.38.16-.76.23-1.15.23Zm-251.7-4.88c-.73,0-1.46-.26-2.03-.79-6.13-5.66-11.51-11.98-15.99-18.78-.91-1.38-.53-3.24.86-4.16,1.39-.91,3.24-.52,4.15.86,4.21,6.4,9.27,12.34,15.04,17.67,1.22,1.12,1.29,3.02.17,4.24-.59.64-1.4.97-2.21.97Zm295.16-15.46c-1.08,0-2.13-.59-2.66-1.62-.77-1.47-.19-3.28,1.28-4.05,6.9-3.59,13.96-7.43,20.99-11.42,1.44-.82,3.27-.31,4.09,1.13.82,1.44.31,3.27-1.13,4.09-7.09,4.03-14.22,7.91-21.18,11.53-.44.23-.92.34-1.38.34Zm41.77-23.67c-1.01,0-2-.51-2.56-1.44-.86-1.41-.42-3.26.99-4.12,6.63-4.05,13.44-8.35,20.23-12.78,1.39-.9,3.25-.51,4.15.88s.51,3.25-.88,4.15c-6.84,4.45-13.7,8.78-20.38,12.87-.49.3-1.03.44-1.56.44Zm-362.98-.58c-1.25,0-2.41-.78-2.84-2.03-2.62-7.64-4.36-15.75-5.17-24.09-.16-1.65,1.05-3.12,2.7-3.28,1.65-.15,3.12,1.05,3.28,2.7.77,7.88,2.41,15.52,4.88,22.72.54,1.57-.3,3.27-1.86,3.81-.32.11-.65.16-.97.16Zm403.22-25.6c-.95,0-1.89-.45-2.47-1.29-.94-1.36-.6-3.23.76-4.17,7.03-4.86,13.37-9.42,19.38-13.95,1.32-1,3.21-.73,4.2.59,1,1.32.73,3.2-.59,4.2-6.08,4.58-12.48,9.19-19.58,14.09-.52.36-1.11.53-1.7.53Zm-408.67-21.78s-.08,0-.12,0c-1.66-.06-2.95-1.46-2.88-3.11.31-8.15,1.05-16.3,2.19-24.21.24-1.64,1.76-2.78,3.4-2.54,1.64.24,2.78,1.76,2.54,3.4-1.11,7.71-1.83,15.64-2.13,23.59-.06,1.62-1.39,2.89-3,2.89Zm446.92-7.19c-.85,0-1.7-.36-2.29-1.06-1.07-1.26-.91-3.16.35-4.23,6.27-5.31,12.19-10.69,17.59-15.99,1.18-1.16,3.08-1.15,4.24.04,1.16,1.18,1.15,3.08-.04,4.24-5.5,5.41-11.53,10.89-17.92,16.29-.56.48-1.25.71-1.94.71Zm34.09-33.71c-.68,0-1.37-.23-1.93-.71-1.27-1.07-1.42-2.96-.36-4.23,3.62-4.28,7.05-8.67,10.21-13.04,1.38-1.91,2.74-3.87,4.04-5.83.92-1.38,2.78-1.76,4.16-.84,1.38.92,1.75,2.78.84,4.16-1.34,2.02-2.75,4.04-4.17,6.02-3.25,4.49-6.77,9-10.49,13.4-.59.7-1.44,1.06-2.29,1.06Zm-474.08-6.52c-.26,0-.52-.03-.78-.1-1.6-.43-2.55-2.07-2.12-3.67,2.17-8.13,4.83-15.9,7.9-23.1.65-1.52,2.41-2.23,3.94-1.58,1.52.65,2.23,2.41,1.58,3.94-2.96,6.93-5.53,14.43-7.62,22.29-.36,1.34-1.57,2.23-2.9,2.23Zm500.48-33.42c-.44,0-.89-.1-1.31-.3-1.49-.73-2.11-2.52-1.38-4.01,3.5-7.18,6.46-14.53,8.79-21.84.5-1.58,2.19-2.45,3.77-1.95,1.58.5,2.45,2.19,1.95,3.77-2.42,7.59-5.48,15.21-9.11,22.65-.52,1.07-1.59,1.68-2.7,1.68Zm-481.42-10.4c-.57,0-1.15-.16-1.66-.5-1.38-.92-1.76-2.78-.84-4.16,4.71-7.09,10.03-13.44,15.83-18.87,1.21-1.13,3.11-1.07,4.24.14,1.13,1.21,1.07,3.11-.14,4.24-5.46,5.12-10.48,11.11-14.93,17.81-.58.87-1.53,1.34-2.5,1.34Zm495.76-35.21c-.14,0-.28,0-.43-.03-1.64-.23-2.78-1.75-2.55-3.39.83-5.87,1.26-11.75,1.26-17.48,0-1.96-.05-3.94-.15-5.89-.08-1.65,1.19-3.06,2.84-3.15,1.66-.11,3.06,1.19,3.15,2.84.1,2.04.16,4.12.16,6.19,0,6.01-.44,12.17-1.32,18.32-.21,1.5-1.5,2.58-2.97,2.58Zm-13.51-27.98c-.23,0-.46-.03-.7-.08-9.99-2.38-17.56-8.83-19.75-16.84-.44-1.6.5-3.25,2.1-3.69,1.6-.44,3.25.5,3.69,2.1,1.59,5.8,7.62,10.74,15.36,12.59,1.61.38,2.61,2,2.22,3.61-.33,1.38-1.56,2.3-2.92,2.3Zm23.47-2.7c-1.19,0-2.32-.72-2.79-1.9-.61-1.54.14-3.28,1.68-3.89,5.32-2.11,10.44-5.01,14.3-7.31,2.12-1.26,4.23-2.55,6.28-3.85,1.4-.88,3.25-.47,4.14.94.88,1.4.47,3.25-.94,4.14-2.1,1.32-4.26,2.64-6.42,3.93-4.06,2.41-9.44,5.46-15.16,7.73-.36.14-.74.21-1.1.21Zm-12.56-16.92c-1.31,0-2.51-.86-2.89-2.19-1.51-5.35-3.45-8.52-6.27-10.28-1.95-1.22-4.31-1.52-6.78-.88-1.61.41-3.24-.56-3.65-2.16-.41-1.61.56-3.24,2.16-3.65,4.07-1.04,8.09-.48,11.44,1.6,5.43,3.38,7.67,9.46,8.88,13.74.45,1.59-.48,3.25-2.07,3.7-.27.08-.55.11-.82.11Zm53.29-8.25c-.89,0-1.78-.4-2.37-1.16-1.02-1.31-.78-3.19.52-4.21,6.41-5,12.39-10.24,17.75-15.59,1.17-1.17,3.07-1.17,4.24,0,1.17,1.17,1.17,3.07,0,4.24-5.54,5.52-11.69,10.92-18.3,16.07-.55.43-1.2.63-1.84.63Zm33.75-33.93c-.62,0-1.25-.19-1.78-.59-1.33-.99-1.61-2.87-.62-4.2,4.78-6.44,8.9-13.16,12.25-19.96.73-1.49,2.53-2.1,4.02-1.36,1.49.73,2.1,2.53,1.36,4.02-3.51,7.13-7.83,14.15-12.82,20.88-.59.79-1.49,1.21-2.41,1.21Z"/>
    <g>
      <g class="cls-1">
        <path class="cls-3" d="m522.48,666.64c-19.75.48-39.44,2.72-58.82,6.36l-45.18-19.44c-1.47-.63-2.45-2.04-2.54-3.63l-4.8-89.96c-.09-1.61-1.09-3.04-2.58-3.66l-108.53-45.45c-1.35-.57-2.31-1.79-2.53-3.24l-16.05-104.91c-.18-1.17-.84-2.2-1.82-2.86L61.25,253.63c-2.69-1.8-2.41-5.84.5-7.26l217.79-106.41c1.96-.95,4.32-.27,5.45,1.6l30.46,50.26,101.74,167.82c.53.88.72,1.9.55,2.91l-17.09,96.9c-.32,1.82.58,3.64,2.23,4.48l107.57,54.5c1.49.75,2.39,2.31,2.3,3.96l-5.97,113.45c-.05.76.13,1.52.48,2.2l15.23,28.6Z"/>
      </g>
      <g class="cls-1">
        <path class="cls-3" d="m607.34,497.67l-56.88,169.35c-6.15-.29-12.37-.44-18.64-.47l3.38-142.06c.03-1.23-.48-2.41-1.4-3.23l-73.42-65.99c-1.21-1.08-1.68-2.77-1.22-4.32l26.08-88.52c.25-.86.23-1.79-.09-2.64l-92.44-249.72c-.33-.89-.34-1.83-.09-2.67v-.03c.37-1.17,1.23-2.16,2.44-2.65l164.75-67.19c2.7-1.1,5.69.83,5.78,3.75l9.51,295.73c.03.48-.05.97-.19,1.42l-30.1,93.4c-.5,1.55-.06,3.24,1.1,4.34l60.33,57.11c1.18,1.12,1.61,2.83,1.09,4.38Z"/>
      </g>
      <path class="cls-3" d="m535.2,524.49l-3.38,142.06h-.41c-2.97-.01-5.96.03-8.93.09l-15.23-28.6c-.36-.67-.53-1.44-.48-2.2l5.97-113.45c.09-1.65-.81-3.21-2.3-3.96l-107.57-54.5c-1.65-.84-2.55-2.67-2.23-4.48l17.09-96.9c.18-1-.01-2.03-.55-2.91l-101.74-167.82,77.17-84.41c-.25.84-.24,1.78.09,2.67l92.44,249.72c.32.85.34,1.78.09,2.64l-26.08,88.52c-.46,1.55.01,3.24,1.22,4.32l73.42,65.99c.91.81,1.42,1.99,1.4,3.23Z"/>
      <path class="cls-3" d="m463.32,676.12l-46.02-19.8c-2.53-1.09-4.2-3.47-4.35-6.22l-4.8-89.96c-.03-.46-.32-.87-.74-1.05l-108.53-45.45c-2.35-1-3.96-3.08-4.34-5.56l-16.05-104.9c-.05-.34-.24-.63-.53-.82L59.58,256.12c-2.17-1.45-3.35-3.87-3.18-6.47.18-2.6,1.68-4.84,4.02-5.98l217.79-106.41c3.38-1.65,7.39-.47,9.33,2.74l132.2,218.08c.91,1.49,1.24,3.26.93,4.99l-17.09,96.9c-.09.52.17,1.05.64,1.29l107.57,54.5c2.54,1.28,4.09,3.95,3.94,6.8l-5.97,113.44c-.02.23.04.44.14.64l17.51,32.88-4.86.12c-18.9.46-38.53,2.58-58.34,6.31l-.9.17ZM281.39,142.53c-.18,0-.36.04-.54.12L63.06,249.06c-.54.27-.65.74-.67,1-.02.26.03.74.53,1.08l218.39,146.22c1.68,1.13,2.81,2.92,3.11,4.9l16.05,104.91c.06.42.34.76.74.93l108.52,45.44c2.53,1.06,4.26,3.52,4.41,6.26l4.8,89.96c.03.45.31.85.73,1.04l44.34,19.08c18.14-3.37,36.13-5.41,53.56-6.09l-12.96-24.34c-.63-1.19-.92-2.5-.83-3.81l5.97-113.41c.03-.47-.23-.91-.65-1.13l-107.57-54.5c-2.8-1.42-4.38-4.58-3.83-7.68l17.09-96.91c.05-.29,0-.58-.15-.83l-132.21-218.09c-.23-.37-.62-.58-1.03-.58Z"/>
      <path class="cls-3" d="m552.58,670.12l-2.26-.11c-5.98-.28-12.2-.44-18.51-.47h-3.06s3.45-145.13,3.45-145.13c0-.35-.14-.68-.39-.91l-73.44-66.01c-2.05-1.84-2.88-4.74-2.09-7.4l26.08-88.52c.07-.25.07-.51-.02-.74l-92.45-249.72c-.54-1.46-.6-3.09-.15-4.58l.1-.3c.68-1.94,2.14-3.49,4.07-4.28l164.76-67.19c2.18-.89,4.67-.66,6.64.63,1.97,1.28,3.19,3.45,3.27,5.8l9.51,295.73c.04.74-.07,1.57-.32,2.39l-30.11,93.44c-.14.44-.02.93.31,1.24l60.33,57.11c2.03,1.92,2.76,4.87,1.87,7.51l-57.6,171.5Zm-17.69-6.55c4.56.05,9.06.17,13.45.35l56.16-167.21c.15-.44.03-.93-.31-1.25l-60.33-57.11c-1.99-1.89-2.74-4.81-1.9-7.44l30.1-93.4c.05-.16.05-.29.05-.34l-9.51-295.8c-.02-.54-.34-.83-.54-.96-.2-.13-.6-.31-1.11-.1l-164.75,67.19c-.33.14-.58.41-.69.75l-.04.12c-.04.21-.02.44.05.65l92.45,249.72c.54,1.43.59,3.05.15,4.53l-26.08,88.52c-.13.45,0,.93.34,1.23l73.43,66c1.56,1.38,2.43,3.4,2.39,5.52l-3.31,139.02Z"/>
      <path class="cls-3" d="m520.7,669.68l-16.09-30.23c-.63-1.19-.92-2.5-.83-3.81l5.97-113.41c.03-.47-.23-.91-.65-1.13l-107.57-54.5c-2.8-1.42-4.38-4.58-3.83-7.68l17.09-96.91c.05-.29,0-.58-.15-.83l-102.91-169.75,87.61-95.83-3.84,12.66c-.07.24-.06.5.03.75l92.45,249.72c.54,1.43.59,3.05.15,4.53l-26.08,88.52c-.13.45,0,.93.34,1.23l73.43,66c1.56,1.38,2.43,3.4,2.39,5.52h0s-3.45,145-3.45,145h-3.34c-2.66-.02-5.55.02-8.86.09l-1.84.04Zm-201.52-477.49l100.58,165.9c.91,1.49,1.24,3.26.93,4.99l-17.09,96.9c-.09.52.17,1.05.64,1.29l107.57,54.5c2.54,1.28,4.09,3.95,3.94,6.8l-5.97,113.44c-.01.23.04.44.14.64l14.36,26.96c1.63-.03,3.17-.05,4.62-.05l3.31-139.12c0-.36-.13-.69-.39-.92l-73.44-66.01c-2.05-1.84-2.88-4.74-2.09-7.4l26.08-88.52c.07-.25.07-.51-.02-.74l-91.47-247.08-71.69,78.42Zm216.02,332.31h0,0Z"/>
      <g>
        <path class="cls-3" d="m360.17,410.13c-.15,0-.29-.01-.44-.03l-79.11-11.72c-1.64-.24-2.77-1.77-2.53-3.41.24-1.64,1.77-2.77,3.41-2.53l79.11,11.72c1.64.24,2.77,1.77,2.53,3.41-.22,1.49-1.5,2.56-2.96,2.56Z"/>
        <path class="cls-3" d="m408.14,540.65c-1.45,0-2.72-1.05-2.96-2.52-.26-1.64.85-3.18,2.48-3.44l104.37-16.84c1.63-.26,3.18.85,3.44,2.48.26,1.64-.85,3.18-2.48,3.44l-104.37,16.84c-.16.03-.32.04-.48.04Z"/>
        <path class="cls-3" d="m518.39,366.04c-.13,0-.27,0-.41-.03l-23.99-3.24c-1.64-.22-2.79-1.73-2.57-3.38.22-1.64,1.74-2.79,3.38-2.57l23.99,3.24c1.64.22,2.79,1.73,2.57,3.38-.2,1.51-1.49,2.6-2.97,2.6Z"/>
      </g>
    </g>
    <g>
      <g class="cls-1">
        <path class="cls-3" d="m854.27,787.32c-1.3,31.51-146.54,25.78-239.92,27.7-93.37,1.91-138.84,12.41-79.15,31.51,59.71,19.09,47.01,39.15-13.43,45.84-60.44,6.69-201.14,9.55-224.5-18.63-23.34-28.16,57.07-27.21,70.03-46.79,12.97-19.57-92.08-2.86-154.32-20.05-54.82-15.15,86.11-112.83,250.69-135.61,19.38-2.68,39.07-4.33,58.82-4.68,2.97-.05,5.96-.07,8.93-.07h.41c6.27.02,12.5.13,18.64.35,180.37,6.01,305.07,89.97,303.81,120.43Z"/>
      </g>
      <path class="cls-3" d="m430.25,899.84c-11.63,0-23.35-.22-34.78-.71-55.79-2.41-89.61-10.3-100.52-23.47-4.32-5.21-5.8-10.12-4.41-14.59,3.17-10.14,20.33-14.96,38.5-20.06,14.59-4.1,31.13-8.74,35.75-15.72.56-.85.63-1.33.58-1.43-.22-.42-1.99-2.56-15.11-3.72-9.46-.83-21.98-.99-36.48-1.17-31.87-.39-71.54-.88-101.61-9.18-12.37-3.42-14.55-10.45-14.21-15.74,1.14-17.23,32.46-43.48,81.75-68.51,32.15-16.33,98.75-45.48,183.54-57.22,20.08-2.78,39.99-4.37,59.18-4.71,3.32-.05,6.26-.07,8.99-.07h.4c6.39.02,12.7.14,18.75.35,151.46,5.05,261,64.14,294.47,100.2,8.38,9.03,12.5,16.89,12.23,23.35h0c-.57,13.76-20.41,21.79-64.35,26.03-36.07,3.48-82.06,3.75-126.54,4.01-18.45.11-35.87.21-51.98.54-100.34,2.05-103.04,12.74-103.11,13.19,0,.04.06,4.54,24.81,12.46,28.15,9,41.91,18.67,40.9,28.72-1.41,14.1-30.65,20.27-54.92,22.95-22.47,2.49-56.71,4.49-91.84,4.49Zm100.05-230.29c-2.38,0-4.93.02-7.77.07-18.94.34-38.61,1.91-58.45,4.66-83.92,11.61-149.83,40.46-181.65,56.62-53.09,26.97-77.67,51.35-78.48,63.56-.11,1.66-.44,6.72,9.82,9.56,29.32,8.1,68.56,8.58,100.09,8.96,35.72.44,53.06.97,56.82,8.08.84,1.58,1.36,4.17-.88,7.55-5.85,8.84-22.02,13.38-39.13,18.18-15.09,4.24-32.2,9.04-34.39,16.07-.75,2.41.36,5.42,3.3,8.97,21.28,25.68,153.7,25.1,221.86,17.56,35.72-3.95,49.05-11.94,49.61-17.59.24-2.42-1.69-11.2-36.76-22.41-21.23-6.79-29.88-12.49-28.92-19.04.61-4.18,4.83-9.47,32.29-13.39,18.32-2.61,44.11-4.28,76.63-4.94,16.15-.33,33.6-.43,52.07-.54,44.34-.26,90.19-.53,126-3.98,48.21-4.65,58.65-13.61,58.93-20.3h0c.19-4.67-3.58-11.42-10.63-19.02-32.81-35.35-140.63-93.3-290.28-98.29-5.99-.21-12.23-.33-18.55-.34h-.4c-.37,0-.74,0-1.11,0Z"/>
      <g class="cls-1">
        <ellipse class="cls-3" cx="373.46" cy="747.09" rx="52.85" ry="11.1"/>
        <g>
          <ellipse class="cls-3" cx="411.41" cy="790.14" rx="18.97" ry="7.79"/>
          <ellipse class="cls-3" cx="650.7" cy="741.69" rx="74.21" ry="26.1"/>
        </g>
      </g>
    </g>
    <g>
      <g class="cls-1">
        <ellipse class="cls-3" cx="779.09" cy="174.1" rx="20.35" ry="42.76" transform="translate(220.66 744.58) rotate(-58.21)"/>
      </g>
      <g class="cls-1">
        <path class="cls-4" d="m783,245.28c-4.56,0-8.51-1.24-11.74-3.69-11.77-8.93-9.89-31.3,4.2-49.86,9.75-12.85,23.55-21.16,35.15-21.16,4.56,0,8.51,1.24,11.74,3.69,5.67,4.3,8.37,11.83,7.61,21.21-.77,9.46-4.96,19.63-11.81,28.66-9.75,12.85-23.55,21.16-35.15,21.16h0Z"/>
        <path class="cls-2" d="m810.61,171.07c4.45,0,8.3,1.21,11.44,3.59,5.53,4.19,8.16,11.57,7.41,20.77-.76,9.36-4.92,19.45-11.71,28.4-9.66,12.73-23.31,20.96-34.76,20.96-4.45,0-8.3-1.21-11.44-3.59-5.53-4.19-8.16-11.57-7.41-20.77.76-9.36,4.92-19.45,11.71-28.4,9.66-12.73,23.31-20.96,34.76-20.96m0-1c-11.45,0-25.31,7.86-35.55,21.36-14.28,18.81-16.11,41.45-4.11,50.56,3.39,2.58,7.53,3.8,12.04,3.8,11.45,0,25.31-7.86,35.55-21.36,14.28-18.81,16.11-41.45,4.11-50.56-3.39-2.58-7.53-3.8-12.04-3.8h0Z"/>
      </g>
      <ellipse class="cls-3" cx="796.8" cy="207.93" rx="42.76" ry="27.3" transform="translate(149.48 716.95) rotate(-52.8)"/>
      <g class="cls-1">
        <ellipse class="cls-3" cx="776.33" cy="195.09" rx="42.76" ry="20.35" transform="translate(-7.05 30.56) rotate(-2.24)"/>
      </g>
    </g>
    <g>
      <g class="cls-1">
        <path class="cls-3" d="m659.29,486.58v122.69c0,11.64,9.44,21.08,21.09,21.08h34.14v19.88c0,9.14,10.8,14,17.65,7.93l4.1-3.65,24.75-21.96,2.48-2.2h131.24c11.65,0,21.09-9.44,21.09-21.08v-122.69c0-11.65-9.44-21.09-21.09-21.09h-214.35c-11.65,0-21.09,9.44-21.09,21.09Z"/>
      </g>
      <path class="cls-3" d="m725.18,663.86c-1.89,0-3.81-.4-5.64-1.22-4.95-2.23-8.02-6.98-8.02-12.4v-16.88h-31.14c-13.28,0-24.09-10.8-24.09-24.08v-122.69c0-13.28,10.81-24.09,24.09-24.09h214.35c13.28,0,24.09,10.81,24.09,24.09v122.69c0,13.28-10.81,24.08-24.09,24.08h-130.1l-30.47,27.05c-2.57,2.28-5.75,3.46-8.99,3.46Zm-44.8-195.37c-9.97,0-18.09,8.12-18.09,18.09v122.69c0,9.97,8.11,18.08,18.09,18.08h37.14v22.88c0,3.08,1.68,5.67,4.48,6.93,2.81,1.27,5.87.8,8.18-1.25l4.09-3.64,28.08-24.92h132.38c9.97,0,18.09-8.11,18.09-18.08v-122.69c0-9.97-8.11-18.09-18.09-18.09h-214.35Z"/>
      <path class="cls-3" d="m823.62,554.73c0,13.97-3.14,24.75-9.42,32.33-6.28,7.58-15.12,11.37-26.54,11.37-11.51,0-20.42-3.81-26.72-11.44-6.3-7.63-9.45-18.38-9.45-32.26v-18.9c0-13.97,3.14-24.75,9.42-32.33,6.28-7.58,15.15-11.37,26.61-11.37,11.46,0,20.35,3.81,26.65,11.44,6.3,7.63,9.45,18.4,9.45,32.33v18.83Zm-23.95-21.96c0-7.44-.97-12.99-2.91-16.66-1.94-3.67-5.02-5.51-9.24-5.51-4.12,0-7.12,1.71-8.99,5.12-1.87,3.41-2.88,8.57-3.02,15.49v26.43c0,7.72.97,13.37,2.91,16.95,1.94,3.58,5.02,5.36,9.24,5.36,4.07,0,7.08-1.74,9.02-5.22,1.94-3.48,2.94-8.94,2.98-16.38v-25.58Z"/>
    </g>
  </g>
</svg>